<svg xmlns="http://www.w3.org/2000/svg" xmlns:xlink="http://www.w3.org/1999/xlink" width="155" height="126" viewBox="0 0 155 126">
  <defs>
    <clipPath id="clip-Info_2">
      <rect width="155" height="126"/>
    </clipPath>
  </defs>
  <g id="Info_2" data-name="Info – 2" clip-path="url(#clip-Info_2)">
    <circle id="Ellipse_12" data-name="Ellipse 12" cx="34.5" cy="34.5" r="34.5" transform="translate(83 3)" fill="#1f4a00"/>
    <circle id="Ellipse_13" data-name="Ellipse 13" cx="54.5" cy="54.5" r="54.5" transform="translate(4 13)" fill="#1f4a00" opacity="0.298"/>
    <g id="_216254_info_large_icon" data-name="216254_info_large_icon" transform="translate(117.5 18.009)">
      <path id="Path_37" data-name="Path 37" d="M22.946,29.053a9.471,9.471,0,0,1-2.532.453,1.762,1.762,0,0,1-.989-.192c-.409-.285-1.17-.819.132-3.411l2.437-4.858c1.445-2.885,1.659-5.675.6-7.858a6.45,6.45,0,0,0-4.678-3.45A11.638,11.638,0,0,0,15.578,9.5a12.388,12.388,0,0,0-7.665,2.744,1.218,1.218,0,0,0,1.2,2.066,9.4,9.4,0,0,1,2.532-.456,1.756,1.756,0,0,1,.979.19c.412.288,1.174.828-.124,3.416l-2.437,4.861C8.616,25.208,8.4,28,9.467,30.179a6.445,6.445,0,0,0,4.681,3.45,11.868,11.868,0,0,0,2.324.236,12.4,12.4,0,0,0,7.67-2.744,1.219,1.219,0,0,0-1.2-2.069Z" transform="translate(-7.5 5.117)" fill="#fff"/>
      <circle id="Ellipse_3" data-name="Ellipse 3" cx="6.082" cy="6.082" r="6.082" transform="translate(7.417 0)" fill="#fff"/>
    </g>
  </g>
</svg>
