<svg xmlns="http://www.w3.org/2000/svg" xmlns:xlink="http://www.w3.org/1999/xlink" width="375" height="983" viewBox="0 0 375 983">
  <defs>
    <clipPath id="clip-mobile_tlo1">
      <rect width="375" height="983"/>
    </clipPath>
  </defs>
  <g id="mobile_tlo1" clip-path="url(#clip-mobile_tlo1)">
    <rect width="375" height="983" fill="#f7ce60"/>
    <g id="MEWY" transform="translate(-1244.12 -141)">
      <path id="Path_14" data-name="Path 14" d="M941.243,1131.332c-8.153,13.781,19.758-12.859,28.391-13.2s25.207,12.464,30.57,25.24c9.885,5.82,13.354-23.758,28.462-28.106s25.637-7.689,32.817-7.038-10.074-9.585-38.015-5.955c-17.031,3.841-14.358,19.84-18.78,19.411s-18.2-17.562-28.127-19.411S949.4,1117.551,941.243,1131.332Z" transform="translate(526.781 -803.845)" fill="#fff" opacity="0.346"/>
      <path id="Path_15" data-name="Path 15" d="M927.841,1001.169c-1.377,2.524,22.851-1.221,27.36,14.772s4.21,18.992,3.4,24.528,7.551-4.816,18.582-6.089,19.617-2.7,24.456,2.718,7.687,14.163,8.356,11.867-.469-15.523-10.219-21.205-27.521,1.523-31.632,0-2.87-18.455-12.947-25.1S929.218,998.645,927.841,1001.169Z" transform="translate(531.267 -765.272)" fill="#fff" opacity="0.346"/>
      <path id="Path_16" data-name="Path 16" d="M1030.062,994.188c-3.351,3.211,17.289-6.166,22.585,5.3s4.178,22.782,7.236,17.085,7.81-14.667,17.831-17.085,19.313,4.836,22.25,7.411-.134-9.574-11.623-12.715-22.593.952-24.22,5.3-8.1-9.637-15.407-11.918S1033.413,990.978,1030.062,994.188Z" transform="translate(493.113 -761)" fill="#fff" opacity="0.346"/>
    </g>
  </g>
</svg>
