<svg xmlns="http://www.w3.org/2000/svg" xmlns:xlink="http://www.w3.org/1999/xlink" width="785" height="467" viewBox="0 0 785 467">
  <defs>
    <clipPath id="clip-path">
      <rect id="Rectangle_1" data-name="Rectangle 1" width="243.912" height="246.09" fill="none"/>
    </clipPath>
    <clipPath id="clip-Artboard_1">
      <rect width="785" height="467"/>
    </clipPath>
  </defs>
  <g id="Artboard_1" data-name="Artboard – 1" clip-path="url(#clip-Artboard_1)">
    <g id="ROWER" transform="translate(-273.281 -231.531)">
      <ellipse id="Ellipse_1" data-name="Ellipse 1" cx="156.5" cy="18.5" rx="156.5" ry="18.5" transform="translate(288 646)" fill="#e3be5a"/>
      <ellipse id="Ellipse_2" data-name="Ellipse 2" cx="158" cy="18.5" rx="158" ry="18.5" transform="translate(696 646)" fill="#e3be5a"/>
      <g id="KOLO" transform="translate(332 398.616)">
        <circle id="tylnie_koło" data-name="tylnie koło" cx="132.161" cy="132.161" r="132.161" transform="translate(0 0)" fill="#1f4a00"/>
        <circle id="środek" cx="9.871" cy="9.871" r="9.871" transform="translate(122.839 122.839)" fill="#fff"/>
        <line id="sz6" y2="220.046" transform="translate(133.518 21.424)" fill="none" stroke="#fff" stroke-width="1"/>
        <line id="sz5" x1="110.777" y2="191.104" transform="translate(78.004 37.5)" fill="none" stroke="#fff" stroke-width="1"/>
        <line id="sz4" x1="191.607" y2="110.274" transform="translate(37.365 77.691)" fill="none" stroke="#fff" stroke-width="1"/>
        <line id="sz3" x1="219.355" transform="translate(23.032 132.71)" fill="none" stroke="#fff" stroke-width="1"/>
        <line id="sz2" x1="190.602" y1="110.274" transform="translate(37.365 76.938)" fill="none" stroke="#fff" stroke-width="1"/>
        <line id="sz1" x1="109.772" y1="190.1" transform="translate(78.004 36.299)" fill="none" stroke="#fff" stroke-width="1"/>
        <g id="opona" transform="translate(21.486 20.921)" fill="none">
          <path d="M111.028,0A111.028,111.028,0,1,1,0,111.028,111.028,111.028,0,0,1,111.028,0Z" stroke="none"/>
          <path d="M 111.0278472900391 3 C 103.6963500976562 3 96.37031555175781 3.738433837890625 89.25328063964844 5.194778442382812 C 82.31866455078125 6.613815307617188 75.49755859375 8.731185913085938 68.97944641113281 11.48812866210938 C 62.57901000976562 14.19528198242188 56.40553283691406 17.54615783691406 50.63053894042969 21.44769287109375 C 44.90962219238281 25.31265258789062 39.52984619140625 29.75140380859375 34.640625 34.640625 C 29.75140380859375 39.52984619140625 25.31265258789062 44.90962219238281 21.44769287109375 50.63053894042969 C 17.54615783691406 56.40553283691406 14.19528198242188 62.57901000976562 11.48812866210938 68.97944641113281 C 8.731185913085938 75.49755859375 6.613815307617188 82.31866455078125 5.194778442382812 89.25328063964844 C 3.738433837890625 96.37031555175781 3 103.6963500976562 3 111.0278472900391 C 3 118.3593444824219 3.738433837890625 125.6853790283203 5.194778442382812 132.8023986816406 C 6.613815307617188 139.7369995117188 8.731185913085938 146.5581359863281 11.48812866210938 153.0762329101562 C 14.19528198242188 159.4766845703125 17.54615783691406 165.6501617431641 21.44769287109375 171.4251251220703 C 25.31265258789062 177.1460266113281 29.75140380859375 182.5258483886719 34.640625 187.4150695800781 C 39.52984619140625 192.3042907714844 44.90962219238281 196.7430419921875 50.63053894042969 200.6080017089844 C 56.40553283691406 204.5095062255859 62.57901000976562 207.8604125976562 68.97944641113281 210.5675659179688 C 75.49755859375 213.3244781494141 82.31866455078125 215.4418792724609 89.25328063964844 216.8609161376953 C 96.37031555175781 218.3172607421875 103.6963500976562 219.0556945800781 111.0278472900391 219.0556945800781 C 118.3593444824219 219.0556945800781 125.6853790283203 218.3172607421875 132.8023986816406 216.8609161376953 C 139.7369995117188 215.4418792724609 146.5581359863281 213.3244781494141 153.0762329101562 210.5675659179688 C 159.4766845703125 207.8604125976562 165.6501617431641 204.5095062255859 171.4251251220703 200.6080017089844 C 177.1460266113281 196.7430419921875 182.5258483886719 192.3042907714844 187.4150695800781 187.4150695800781 C 192.3042907714844 182.5258483886719 196.7430419921875 177.1460266113281 200.6080017089844 171.4251251220703 C 204.5095062255859 165.6501617431641 207.8604125976562 159.4766845703125 210.5675659179688 153.0762329101562 C 213.3244781494141 146.5581359863281 215.4418792724609 139.7369995117188 216.8609161376953 132.8023986816406 C 218.3172607421875 125.6853790283203 219.0556945800781 118.3593444824219 219.0556945800781 111.0278472900391 C 219.0556945800781 103.6963500976562 218.3172607421875 96.37031555175781 216.8609161376953 89.25328063964844 C 215.4418792724609 82.31866455078125 213.3244781494141 75.49755859375 210.5675659179688 68.97944641113281 C 207.8604125976562 62.57901000976562 204.5095062255859 56.40553283691406 200.6080017089844 50.63053894042969 C 196.7430419921875 44.90962219238281 192.3042907714844 39.52984619140625 187.4150695800781 34.640625 C 182.5258483886719 29.75140380859375 177.1460266113281 25.31265258789062 171.4251251220703 21.44769287109375 C 165.6501617431641 17.54615783691406 159.4766845703125 14.19528198242188 153.0762329101562 11.48812866210938 C 146.5581359863281 8.731185913085938 139.7369995117188 6.613815307617188 132.8023986816406 5.194778442382812 C 125.6853790283203 3.738433837890625 118.3593444824219 3 111.0278472900391 3 M 111.0278472900391 0 C 172.3468170166016 0 222.0556945800781 49.70884704589844 222.0556945800781 111.0278472900391 C 222.0556945800781 172.3468170166016 172.3468170166016 222.0556945800781 111.0278472900391 222.0556945800781 C 49.70884704589844 222.0556945800781 0 172.3468170166016 0 111.0278472900391 C 0 49.70884704589844 49.70884704589844 0 111.0278472900391 0 Z" stroke="none" fill="#fff"/>
        </g>
        <g id="Group_2" data-name="Group 2" transform="translate(42.944 283.927) rotate(-107)" opacity="0.098">
          <g id="Group_1" data-name="Group 1" clip-path="url(#clip-path)">
            <path id="Path_9" data-name="Path 9" d="M91.794,122.4s-2.492-20.279,19.662-21.843,27.773,21.532,28.4,24.34,1.875,26.525-18.72,36.213a46.738,46.738,0,0,1-45.871-3.119c-20.552-13.7-26.921-39.9-19.64-62.76,8.947-28.118,36.639-44.15,65.546-43.294,48.142,1.427,78.105,49.148,70.364,94.478-4.823,28.225-26.112,52.4-51.9,64.148-26.5,12.087-60.77,11.737-86.06-3.242A110.622,110.622,0,0,1,4.035,143.508C-8.223,100.687,8.116,51.33,43.976,24.788A126.208,126.208,0,0,1,106.109.593a126.305,126.305,0,0,1,92.876,28.821c43.128,36.409,55.538,98.99,35.787,150.817-.03.077-.06.158-.085.234-8.363,25.077-28.919,47.405-49.846,62.628a15.775,15.775,0,0,1-5.083,2.765,5.729,5.729,0,0,1-5.445-1.129c-1.764-1.751-1.64-4.759-.426-6.923s3.285-3.694,5.253-5.21c20.59-15.908,38.552-39,44.947-64.592,4.58-18.32,6.45-35.574,3.123-55.756-6.889-41.905-37.986-76.947-78.983-88.407-27.85-7.754-59.113-3.464-83.111,12.662C32.839,58.2,18,98.706,28.135,136.133c2.705,9.986,14.771,33.913,31.625,43.064s24.34,11.857,47.013,11.226,37.444-17.042,39.11-18.724c13.429-13.429,19.172-34.692,14.3-53.054-6.182-23.372-31.075-39.5-54.661-30.159C94.5,92.86,90.546,101.381,89.3,107.427s0,12.274,2.492,14.975" transform="translate(0 0)" fill="#fff"/>
          </g>
        </g>
      </g>
      <g id="KOLO-2" data-name="KOLO" transform="translate(747.677 398.616)">
        <circle id="przednie_koło" data-name="przednie koło" cx="132.161" cy="132.161" r="132.161" transform="translate(0 0)" fill="#1f4a00"/>
        <ellipse id="środek-2" data-name="środek" cx="10.419" cy="9.871" rx="10.419" ry="9.871" transform="translate(121.742 122.839)" fill="#fff"/>
        <line id="sz6-2" data-name="sz6" y2="220.046" transform="translate(132.814 21.424)" fill="none" stroke="#fff" stroke-width="1"/>
        <line id="sz5-2" data-name="sz5" x1="110.777" y2="191.104" transform="translate(77.3 37.5)" fill="none" stroke="#fff" stroke-width="1"/>
        <line id="sz4-2" data-name="sz4" x1="191.607" y2="110.274" transform="translate(36.661 77.691)" fill="none" stroke="#fff" stroke-width="1"/>
        <line id="sz3-2" data-name="sz3" x1="219.355" transform="translate(21.935 132.71)" fill="none" stroke="#fff" stroke-width="1"/>
        <line id="sz2-2" data-name="sz2" x1="190.602" y1="110.274" transform="translate(36.661 76.938)" fill="none" stroke="#fff" stroke-width="1"/>
        <line id="sz1-2" data-name="sz1" x1="109.772" y1="190.1" transform="translate(77.3 36.299)" fill="none" stroke="#fff" stroke-width="1"/>
        <g id="opona-2" data-name="opona" transform="translate(20.781 20.921)" fill="none">
          <path d="M111.028,0A111.028,111.028,0,1,1,0,111.028,111.028,111.028,0,0,1,111.028,0Z" stroke="none"/>
          <path d="M 111.0278472900391 3 C 103.6963500976562 3 96.37031555175781 3.738433837890625 89.25328063964844 5.194778442382812 C 82.31866455078125 6.613815307617188 75.49755859375 8.731185913085938 68.97944641113281 11.48812866210938 C 62.57901000976562 14.19528198242188 56.40553283691406 17.54615783691406 50.63053894042969 21.44769287109375 C 44.90962219238281 25.31265258789062 39.52984619140625 29.75140380859375 34.640625 34.640625 C 29.75140380859375 39.52984619140625 25.31265258789062 44.90962219238281 21.44769287109375 50.63053894042969 C 17.54615783691406 56.40553283691406 14.19528198242188 62.57901000976562 11.48812866210938 68.97944641113281 C 8.731185913085938 75.49755859375 6.613815307617188 82.31866455078125 5.194778442382812 89.25328063964844 C 3.738433837890625 96.37031555175781 3 103.6963500976562 3 111.0278472900391 C 3 118.3593444824219 3.738433837890625 125.6853790283203 5.194778442382812 132.8023986816406 C 6.613815307617188 139.7369995117188 8.731185913085938 146.5581359863281 11.48812866210938 153.0762329101562 C 14.19528198242188 159.4766845703125 17.54615783691406 165.6501617431641 21.44769287109375 171.4251251220703 C 25.31265258789062 177.1460266113281 29.75140380859375 182.5258483886719 34.640625 187.4150695800781 C 39.52984619140625 192.3042907714844 44.90962219238281 196.7430419921875 50.63053894042969 200.6080017089844 C 56.40553283691406 204.5095062255859 62.57901000976562 207.8604125976562 68.97944641113281 210.5675659179688 C 75.49755859375 213.3244781494141 82.31866455078125 215.4418792724609 89.25328063964844 216.8609161376953 C 96.37031555175781 218.3172607421875 103.6963500976562 219.0556945800781 111.0278472900391 219.0556945800781 C 118.3593444824219 219.0556945800781 125.6853790283203 218.3172607421875 132.8023986816406 216.8609161376953 C 139.7369995117188 215.4418792724609 146.5581359863281 213.3244781494141 153.0762329101562 210.5675659179688 C 159.4766845703125 207.8604125976562 165.6501617431641 204.5095062255859 171.4251251220703 200.6080017089844 C 177.1460266113281 196.7430419921875 182.5258483886719 192.3042907714844 187.4150695800781 187.4150695800781 C 192.3042907714844 182.5258483886719 196.7430419921875 177.1460266113281 200.6080017089844 171.4251251220703 C 204.5095062255859 165.6501617431641 207.8604125976562 159.4766845703125 210.5675659179688 153.0762329101562 C 213.3244781494141 146.5581359863281 215.4418792724609 139.7369995117188 216.8609161376953 132.8023986816406 C 218.3172607421875 125.6853790283203 219.0556945800781 118.3593444824219 219.0556945800781 111.0278472900391 C 219.0556945800781 103.6963500976562 218.3172607421875 96.37031555175781 216.8609161376953 89.25328063964844 C 215.4418792724609 82.31866455078125 213.3244781494141 75.49755859375 210.5675659179688 68.97944641113281 C 207.8604125976562 62.57901000976562 204.5095062255859 56.40553283691406 200.6080017089844 50.63053894042969 C 196.7430419921875 44.90962219238281 192.3042907714844 39.52984619140625 187.4150695800781 34.640625 C 182.5258483886719 29.75140380859375 177.1460266113281 25.31265258789062 171.4251251220703 21.44769287109375 C 165.6501617431641 17.54615783691406 159.4766845703125 14.19528198242188 153.0762329101562 11.48812866210938 C 146.5581359863281 8.731185913085938 139.7369995117188 6.613815307617188 132.8023986816406 5.194778442382812 C 125.6853790283203 3.738433837890625 118.3593444824219 3 111.0278472900391 3 M 111.0278472900391 0 C 172.3468170166016 0 222.0556945800781 49.70884704589844 222.0556945800781 111.0278472900391 C 222.0556945800781 172.3468170166016 172.3468170166016 222.0556945800781 111.0278472900391 222.0556945800781 C 49.70884704589844 222.0556945800781 0 172.3468170166016 0 111.0278472900391 C 0 49.70884704589844 49.70884704589844 0 111.0278472900391 0 Z" stroke="none" fill="#fff"/>
        </g>
        <g id="Group_4" data-name="Group 4" transform="translate(43.266 283.927) rotate(-107)" opacity="0.098">
          <g id="Group_1-2" data-name="Group 1" clip-path="url(#clip-path)">
            <path id="Path_9-2" data-name="Path 9" d="M91.794,122.4s-2.492-20.279,19.662-21.843,27.773,21.532,28.4,24.34,1.875,26.525-18.72,36.213a46.738,46.738,0,0,1-45.871-3.119c-20.552-13.7-26.921-39.9-19.64-62.76,8.947-28.118,36.639-44.15,65.546-43.294,48.142,1.427,78.105,49.148,70.364,94.478-4.823,28.225-26.112,52.4-51.9,64.148-26.5,12.087-60.77,11.737-86.06-3.242A110.622,110.622,0,0,1,4.035,143.508C-8.223,100.687,8.116,51.33,43.976,24.788A126.208,126.208,0,0,1,106.109.593a126.305,126.305,0,0,1,92.876,28.821c43.128,36.409,55.538,98.99,35.787,150.817-.03.077-.06.158-.085.234-8.363,25.077-28.919,47.405-49.846,62.628a15.775,15.775,0,0,1-5.083,2.765,5.729,5.729,0,0,1-5.445-1.129c-1.764-1.751-1.64-4.759-.426-6.923s3.285-3.694,5.253-5.21c20.59-15.908,38.552-39,44.947-64.592,4.58-18.32,6.45-35.574,3.123-55.756-6.889-41.905-37.986-76.947-78.983-88.407-27.85-7.754-59.113-3.464-83.111,12.662C32.839,58.2,18,98.706,28.135,136.133c2.705,9.986,14.771,33.913,31.625,43.064s24.34,11.857,47.013,11.226,37.444-17.042,39.11-18.724c13.429-13.429,19.172-34.692,14.3-53.054-6.182-23.372-31.075-39.5-54.661-30.159C94.5,92.86,90.546,101.381,89.3,107.427s0,12.274,2.492,14.975" transform="translate(0 0)" fill="#fff"/>
          </g>
        </g>
      </g>
      <g id="rama" transform="translate(441.016 250.062)">
        <path id="Path_5" data-name="Path 5" d="M473.3,291.893,346.232,30.909A22.746,22.746,0,0,0,326.087,19H250.579c-12.519,0-22.652,9.817-22.652,21.945S238.06,62.89,250.579,62.89h61.675l46.6,87.78H226.824L195.337,89.648A22.768,22.768,0,0,0,175.071,77.52H99.563c-12.519,0-22.652,9.817-22.652,21.945S87.044,121.41,99.563,121.41h61.509l21.2,41.081L24.811,287.3a21.53,21.53,0,0,0-6.992,24.374,22.62,22.62,0,0,0,21.338,14.557H250.579a23.07,23.07,0,0,0,16.023-6.423L386.825,203.337l46.2,108.628a22.754,22.754,0,0,0,20.16,11.909,23.215,23.215,0,0,0,10.345-2.443A21.6,21.6,0,0,0,473.3,291.893Zm-370.687-9.554,100.425-79.6,40.11,77.714-1.948,1.887Zm174.3-34.614-27.439-53.165H331.81Z" transform="translate(-16.5 -19)" fill="#231f20" opacity="0.095"/>
        <path id="Path_6" data-name="Path 6" d="M238.106,288.741,107.508,18.5H32" transform="translate(202.079 -18.5)" fill="none" stroke="#fff" stroke-linecap="round" stroke-linejoin="round" stroke-miterlimit="10" stroke-width="15"/>
        <path id="Path_7" data-name="Path 7" d="M192.458,200.706,99.481,22.5H22" transform="translate(61.064 37.906)" fill="none" stroke="#fff" stroke-linecap="round" stroke-linejoin="round" stroke-miterlimit="10" stroke-width="15"/>
        <path id="Path_8" data-name="Path 8" d="M18,163.414H229.422L365.336,27.5H184.117Z" transform="translate(4.658 108.414)" fill="none" stroke="#fff" stroke-linecap="round" stroke-linejoin="round" stroke-miterlimit="10" stroke-width="15"/>
      </g>
    </g>
  </g>
</svg>
